# xmcd
#
# Track frame offsets:
# 150
# 20940
# 34160
# 54417
# 66840
# 76785
# 93977
# 108230
# 120452
# 135975
#
# Disc length: 2049 seconds
#
#
# Revision: 1
# Processed by: cddbd v1.4PL0 Copyright (c) Steve Scherf et al.
# Submitted via: FreeRIP 2.52 
#
DISCID=7907ff0a
DTITLE=Bob Hall - Left Hand Roller
DYEAR=1979
DGENRE=Jazz
TTITLE0=Pine Top Boogie Woogie
TTITLE1=The Sheik Of Araby
TTITLE2=The Spider
TTITLE3=Erwin's Elevated Boogie
TTITLE4=The Deker Special
TTITLE5=Texas Stomp
TTITLE6=Margie
TTITLE7=The Fives
TTITLE8=You Are My Sunshine
TTITLE9=Left Hand Roller
EXTD=
EXTT0=
EXTT1=
EXTT2=
EXTT3=
EXTT4=
EXTT5=
EXTT6=
EXTT7=
EXTT8=
EXTT9=
PLAYORDER=
